PathFileType	4	(X/Y/Z)	Patient4_TMGait_0pt7_02_left_19.trc.trc
DataRate	CameraRate	NumFrames	NumMarkers	Units	OrigDataRate	OrigDataStartFrame	OrigNumFrames
86.419753086420	86.419753086420	6	33	mm	86.419753086420	53	       141
Frame#	Time	Sacral			L.Shoulder			Chest			R.Shoulder			Neck			R.ASIS			L.ASIS			R.Thigh.Superior			R.Thigh.Lateral			R.Thigh.Inferior			R.Patella			L.Thigh.Superior			L.Thigh.Lateral			L.Thigh.Inferior			L.Patella			L.Shank.Superior			L.Shank.Lateral			L.Shank.Inferior			R.Shank.Superior			R.Shank.Lateral			R.Shank.Inferior			R.Heel			R.Midfoot.Superior			R.Midfoot.Lateral			R.Toe			L.Heel			L.Midfoot.Lateral			L.Midfoot.Superior			L.Toe			L.Elbow			L.Wrist			R.Elbow			R.Wrist			
		X1	Y1	Z1	X2	Y2	Z2	X3	Y3	Z3	X4	Y4	Z4	X5	Y5	Z5	X6	Y6	Z6	X7	Y7	Z7	X8	Y8	Z8	X9	Y9	Z9	X10	Y10	Z10	X11	Y11	Z11	X12	Y12	Z12	X13	Y13	Z13	X14	Y14	Z14	X15	Y15	Z15	X16	Y16	Z16	X17	Y17	Z17	X18	Y18	Z18	X19	Y19	Z19	X20	Y20	Z20	X21	Y21	Z21	X22	Y22	Z22	X23	Y23	Z23	X24	Y24	Z24	X25	Y25	Z25	X26	Y26	Z26	X27	Y27	Z27	X28	Y28	Z28	X29	Y29	Z29	X30	Y30	Z30	X31	Y31	Z31	X32	Y32	Z32	X33	Y33	Z33	

53	22.101714285714	833.101666703666	1016.459021517031	422.407875924713	1046.435163285285	1426.200884390711	234.236024150558	1139.008925228061	1358.417018262817	402.795477761783	1052.963962639366	1449.927712239030	568.365636060355	1047.043415893630	1494.193281583865	385.231560992527	1049.129539855006	947.044597894467	553.309961990115	1055.796159389884	963.063715322510	279.104174846994	1135.860033096210	785.556792197695	536.023212074683	1095.830940070539	665.064091056066	611.371835541754	1194.937075092642	628.448905371847	542.479761072583	1214.723910466778	513.871808495258	568.018992052986	1095.351779099728	753.242772518617	303.732123585096	1002.138307410860	640.995229629555	245.342787570448	1084.015244356626	560.316212841339	308.274907339610	1081.867151607253	491.952183017816	318.096107672263	1056.097070556440	421.655974978384	310.259793189557	967.481879085470	305.961471276199	258.922167805022	1020.743131269740	196.412480828757	332.753351653844	1136.088136234185	439.315121410883	567.834001462888	1007.399973427142	405.724402125966	615.094212939510	993.561152528897	296.775578884536	566.233349808065	794.088134002649	244.134891820585	518.432080063880	955.365933107073	177.563671075572	575.514643945691	842.557612394112	181.296578231064	596.510403393478	1011.073339736376	61.842524116523	606.272137969973	893.590876790636	39.186996653452	374.549242331157	971.081197987349	35.120213663665	296.962936812762	1052.238245048309	96.789709186818	326.263676058534	1182.294883492701	46.017892040413	305.431479132534	1049.843173839145	1076.051721506741	114.891429756976	1165.305750290798	840.952652571325	124.188275513402	999.529473543393	1115.743644950441	706.192636591722	1192.057710663106	958.079821245631	635.489798721779	
54	22.113285714286	832.252939515769	1016.495303295960	421.469832422066	1047.196329119026	1426.284233899714	234.320464165040	1138.475524369530	1358.395245098198	403.463230133957	1051.296759032183	1449.860947432387	568.499492093919	1046.782741854522	1494.269179442545	385.247590608764	1048.230745957923	947.459269509206	553.341330812453	1055.784427532168	963.428527849714	278.890153632797	1137.115269335863	788.876924667751	536.011051374279	1099.362595295121	667.796787385523	611.590385249981	1199.173536770889	632.925429295590	542.871720341683	1221.551899694340	519.320194172781	568.435628690023	1092.922889916660	752.288622579696	304.108112224035	998.571243250182	641.041568147060	245.125192717867	1078.857559960997	559.379812502604	308.518216701707	1075.743822680995	491.235028663693	318.520032832994	1049.964881691461	421.235714568834	310.500213955540	961.102751703743	305.949904888197	258.834267138626	1013.279780116688	196.151749957267	332.971292648021	1145.598040299439	442.410936677095	568.758199846670	1018.721204028599	403.898344359621	617.101691923482	1008.748379689449	294.297072986510	568.556060964482	811.141164289261	233.873353341771	522.569510730653	975.417852726203	173.609623303112	578.577001962919	862.546923168695	172.833148538292	600.110026277913	1035.552735370518	59.859746346973	608.489022068663	885.438087587645	39.213512626800	374.524626803990	962.956000881333	35.149210677806	296.971544634030	1044.167102692605	96.702285351325	326.350510005583	1174.207237281909	45.790373941524	305.446301831079	1062.318279286995	1077.931233513965	112.245630962786	1187.682000109819	847.921178132332	121.934411342860	989.448784317143	1116.702319343876	706.040829684177	1170.809267962091	941.459460375983	645.498661715408	
55	22.124857142857	831.439752568148	1016.463332269024	420.632371061100	1048.037054964961	1426.334787576514	234.570478257897	1138.013562412323	1358.280204997506	404.260908685452	1049.702290336414	1449.657795124000	568.738911249511	1046.544791607506	1494.258920706846	385.436507550729	1047.347264242993	947.734970517689	553.492004211754	1055.814396715265	963.600159951787	278.781798592369	1138.102980853430	791.761656612816	536.067745440533	1102.289238419449	670.123221837001	611.771817720967	1202.622626714705	636.785267464470	543.150481779248	1227.442640712310	524.385842364302	568.728119231817	1090.512667934898	751.274315529506	304.775940990501	995.195608366571	641.011017855672	245.007082027615	1073.811638131076	558.429881105929	308.934956239081	1069.739107532752	490.485850525802	319.076336065686	1043.946620683692	420.760845851954	310.853249389634	954.861112082995	305.905111948478	258.784191763304	1005.826718850922	195.841777693714	333.267211663474	1154.486754915506	445.108500420160	569.658904664321	1029.915005503352	401.198523386959	619.305697942623	1024.316269030435	291.047867907386	571.113124290938	829.207237502232	221.985696763155	527.173561796201	996.486933558506	168.955561489281	582.054954465168	883.769488599525	163.226637005888	604.217887338825	1061.469800162764	57.632193556718	611.260923504585	877.288340484939	39.230310654871	374.509719165733	954.828674141835	35.171903529040	296.985043360777	1036.097606805049	96.604148626708	326.462491714595	1166.127156573512	45.540726876588	305.477396550004	1074.224770340203	1080.252176115594	109.802824358521	1209.521822694533	855.897268423764	120.258811107073	980.023639054343	1117.592922104391	706.071965983984	1148.251792429147	925.965240451546	656.080016199045	
56	22.136428571429	830.694653279650	1016.366958369163	419.904401251938	1048.960272255077	1426.357067993227	234.989105610266	1137.631733502952	1358.076159267254	405.193924266911	1048.190424337986	1449.322822125341	569.088797846251	1046.349542304267	1494.166173749173	385.805349433948	1046.470075465876	947.866090366335	553.753668884514	1055.881445274605	963.591858257767	278.799992839074	1138.799360377656	794.154270587667	536.163829108802	1104.579322528685	671.996397692566	611.917277558993	1205.233326550503	639.939698988393	543.298059076136	1232.328515138556	528.983792928624	568.898194876533	1088.139803253555	750.204262014396	305.688666862988	991.979784122228	640.909813448890	244.984294096988	1068.866862197785	557.467422543025	309.485414785344	1063.844687861971	489.709594292469	319.729888485846	1038.024027752252	420.236792333617	311.294418283969	948.725357167825	305.831971693917	258.766105665608	998.380592722040	195.490399697241	333.622233317553	1162.678977550836	447.399245462533	570.536016031886	1040.967410678439	397.706214068155	621.662570653427	1040.241285212848	287.181618971349	573.853543443432	848.404413112211	208.728833890545	532.122076625152	1018.526230323450	163.834834339761	585.843643885160	906.260189093627	152.771721074135	608.731797708807	1088.704322745023	55.496763360253	614.522492049339	869.142166658531	39.239724682105	374.500563561848	946.697830406140	35.187774612573	297.001844531323	1028.027756447429	96.497763650716	326.593667353233	1158.051483874895	45.274084615348	305.522040764696	1085.451259046848	1082.947183995324	107.559594583231	1230.718312667029	864.863636358232	119.163668346662	971.239372202307	1118.409002113794	706.275315471162	1124.516241818479	911.805138353049	667.104311361818	
57	22.148000000000	830.050787661088	1016.211162220819	419.292132803898	1049.963453407570	1426.353582946944	235.578354003057	1137.337824927720	1357.788534377921	406.264783325386	1046.777447934010	1448.862836886191	569.558578153190	1046.216597174068	1493.995160328313	386.359242805115	1045.597115341514	947.851381390124	554.119662465791	1055.989644109123	963.428042241774	278.962887161534	1139.173494692093	795.996036397589	536.289324711841	1106.191823595104	673.373935561632	612.040256104839	1206.955882634923	642.309423471574	543.318174921900	1236.142772851744	533.037614863604	568.963535141346	1085.826151905030	749.081760534997	306.793059864395	988.886456542425	640.747616862072	245.050866272172	1064.007099862684	556.492487073160	310.130637609298	1058.047820982773	488.912124811322	320.445901740443	1032.174425369267	419.671381765699	311.798939712307	942.659741550305	305.736612157891	258.776262199028	990.942319111453	195.108228707591	334.015397347281	1170.104847642729	449.286261937362	571.397573903155	1051.864163401072	393.520397793303	624.133731177545	1056.490524450639	282.874941076459	576.724122291826	868.837225919517	194.402888118634	537.284168955754	1041.479867211275	158.502507181882	589.830517920756	930.037858166786	141.780429242343	613.529447149618	1117.116480658990	53.793782276584	618.168422733951	860.999668087819	39.245006128146	374.492606848926	938.562254696916	35.196924760626	297.020643865680	1019.955188417174	96.386113489044	326.737837805171	1149.976182340944	44.996765530292	305.577042475116	1095.917157708748	1085.936787340657	105.511742801791	1251.164722067472	874.787333057582	118.643868771280	963.064229408617	1119.160582588660	706.629299255300	1099.802351663287	899.197472691320	678.392672742721	
58	22.159571428571	829.538328123121	1016.000507768089	418.797827760616	1051.039693868265	1426.323993109603	236.339382600791	1137.139089409468	1357.422702781585	407.473161380712	1045.486153902790	1448.285924235157	570.162187738582	1046.163377155213	1493.749516461793	387.101404201677	1044.737389744810	947.693787718115	554.588040815936	1056.151409438195	963.138138304167	279.283209577171	1139.193661556187	797.228359588380	536.451956882422	1107.082224361111	674.219378180322	612.167375159822	1207.747615818263	643.828735899847	543.235435582744	1238.826386330212	536.482275659141	568.955374846245	1083.593044029037	747.908580132608	308.033721086436	985.877252400382	640.535940692209	245.198788064929	1059.213463508821	555.504146728529	310.834767588889	1052.334012041713	488.099280725866	321.190804225244	1026.373882661140	419.073835712089	312.342438669415	936.628066884480	305.625671886135	258.812216124936	983.515743954736	194.707214110506	334.425363644230	1176.704048448290	450.782544761997	572.257640830852	1062.586057929824	388.755093016806	626.684851510093	1073.012309380873	278.320509872601	579.669571287970	890.573444392142	179.347045645238	542.522495705294	1065.268709523228	153.224836800660	593.900847172171	955.084848200631	130.572267340809	618.469827681916	1146.530960030456	52.843172983579	622.060318519301	852.860473171174	39.250355403087	374.481283863982	930.420975828667	35.200195229440	297.040415691910	1011.877595609909	96.272338659943	326.888804181620	1141.896796217325	44.715540054625	305.639025611208	1105.572416926319	1089.134216385909	103.656825306470	1270.754743287044	885.619749238287	118.687635178912	955.451283336996	1119.870789337202	707.106519088797	1074.383393845192	888.350036744522	689.727588630702	
